<?xml version="1.0" standalone="no"?>
<!DOCTYPE svg PUBLIC "-//W3C//DTD SVG 20010904//EN"
 "http://www.w3.org/TR/2001/REC-SVG-20010904/DTD/svg10.dtd">
<svg version="1.0" xmlns="http://www.w3.org/2000/svg"
 width="324.000000pt" height="324.000000pt" viewBox="0 0 324.000000 324.000000"
 preserveAspectRatio="xMidYMid meet">
<metadata>
Created by potrace 1.14, written by Peter Selinger 2001-2017
</metadata>
<g transform="translate(0.000000,324.000000) scale(0.100000,-0.100000)"
fill="#000000" stroke="none">
<path d="M1392 2972 c4 -12 2 -22 -4 -22 -5 0 -6 -4 -3 -10 3 -5 3 -16 -2 -22
-10 -17 -15 -38 -14 -65 0 -12 -4 -25 -9 -28 -6 -3 -10 1 -10 11 0 13 -3 14
-15 4 -12 -10 -15 -9 -15 5 0 10 -3 16 -6 12 -11 -10 -12 -92 -1 -104 5 -7 8
-13 6 -14 -49 -9 -49 -9 -43 19 3 15 1 38 -3 51 l-9 23 -18 -27 c-10 -15 -19
-44 -20 -64 -1 -20 -6 -44 -11 -55 -5 -11 -3 -21 5 -26 8 -5 9 -9 1 -14 -6 -4
-11 -18 -11 -30 0 -13 -6 -29 -14 -35 -12 -10 -23 -3 -60 35 -25 26 -46 53
-46 61 0 7 -4 21 -9 31 -5 9 -14 30 -20 45 -14 36 -35 43 -67 22 -25 -16 -25
-17 -8 -36 9 -10 13 -19 8 -19 -5 0 -3 -4 5 -9 10 -7 11 -13 1 -31 -9 -16 -9
-25 -1 -33 13 -13 14 -27 1 -47 -8 -13 -11 -12 -24 5 -14 19 -15 19 -21 -8 -5
-19 -12 -26 -22 -23 -8 3 -18 -4 -24 -17 -9 -20 -6 -28 19 -55 24 -26 29 -37
23 -59 -9 -33 -57 -40 -67 -10 -3 10 -4 21 -1 23 3 3 -5 15 -17 28 -14 15 -25
19 -33 13 -7 -5 -19 -7 -27 -4 -10 4 -12 0 -9 -14 3 -10 9 -19 14 -19 5 0 9
-5 9 -11 0 -6 -7 -9 -15 -6 -8 4 -17 2 -19 -2 -7 -10 21 -44 93 -115 16 -17
28 -33 25 -38 -3 -4 2 -15 10 -24 21 -21 13 -32 -19 -26 -15 2 -25 0 -25 -7 0
-6 -16 -11 -36 -11 -34 0 -35 -1 -20 -22 18 -25 21 -58 7 -58 -16 0 -18 -34
-3 -46 22 -16 -1 -54 -28 -47 -11 3 -20 10 -20 15 0 5 -12 7 -27 4 -28 -6 -73
20 -73 41 0 5 -13 22 -30 38 -16 16 -30 26 -30 22 0 -4 -18 4 -40 18 -23 14
-42 21 -45 15 -4 -7 -13 -7 -25 0 -13 7 -19 6 -24 -6 -4 -10 -2 -13 7 -8 7 5
7 1 -2 -10 -8 -9 -20 -15 -28 -12 -11 4 -11 1 -3 -14 6 -11 8 -21 5 -21 -3 -1
-9 -3 -15 -4 -5 -1 -13 -3 -17 -4 -5 -1 -1 -6 7 -12 12 -9 12 -10 -3 -5 -10 3
-23 6 -28 6 -6 0 -8 4 -5 8 3 5 -1 9 -9 9 -8 0 -16 -6 -19 -13 -3 -8 0 -11 9
-8 7 3 16 -3 20 -15 3 -12 13 -21 21 -21 14 0 13 -2 0 -16 -9 -8 -21 -12 -27
-8 -8 4 -9 3 -5 -4 4 -7 14 -12 22 -12 8 0 14 -6 14 -14 0 -7 7 -19 15 -26 16
-13 21 -45 6 -36 -5 4 -7 -3 -4 -14 3 -11 10 -20 15 -20 5 0 6 -4 3 -10 -3 -5
-1 -10 5 -10 17 0 59 -50 54 -63 -2 -7 14 -21 37 -32 23 -11 40 -24 38 -30 -2
-5 -8 -9 -14 -8 -5 1 -22 4 -37 7 -21 5 -26 3 -22 -8 6 -14 -22 -30 -37 -20
-5 3 -4 -6 3 -21 10 -21 23 -30 68 -40 23 -6 58 -26 69 -39 7 -9 24 -16 37
-16 13 0 24 -5 24 -11 0 -6 -9 -9 -20 -6 -11 3 -18 1 -14 -4 3 -5 -1 -9 -10
-9 -8 0 -16 -6 -19 -12 -3 -10 -7 -10 -19 -1 -8 7 -18 9 -22 5 -4 -4 -12 -7
-18 -7 -5 0 -22 -15 -36 -33 -15 -18 -34 -34 -42 -36 -100 -17 -242 -106 -170
-106 11 0 23 -6 26 -14 3 -8 19 -13 42 -13 20 1 51 -6 69 -15 18 -9 31 -13 30
-10 -6 19 17 14 62 -13 31 -18 51 -37 51 -48 0 -10 5 -15 10 -12 6 3 13 -1 16
-9 3 -9 11 -13 17 -9 7 4 8 0 4 -11 -4 -10 -7 -20 -7 -22 0 -2 -6 -4 -13 -4
-8 0 -14 -7 -14 -15 0 -16 3 -17 39 -19 15 -1 22 -8 23 -24 1 -13 -3 -21 -9
-19 -6 3 -10 10 -8 16 1 6 -5 11 -14 11 -8 0 -12 -5 -9 -11 4 -6 -2 -13 -14
-16 -18 -5 -19 -8 -9 -21 9 -11 9 -13 1 -9 -6 4 -14 3 -17 -2 -7 -11 13 -9 32
2 7 5 10 12 7 17 -12 19 14 18 31 -1 10 -11 14 -20 9 -19 -18 4 -38 0 -33 -6
3 -3 -9 -21 -28 -40 -19 -19 -32 -34 -29 -34 3 0 0 -6 -7 -14 -11 -13 -16 -12
-31 7 -11 15 -15 16 -11 5 7 -20 -13 -61 -27 -53 -5 4 -9 1 -9 -6 0 -9 -3 -9
-14 0 -12 10 -14 9 -11 -6 1 -10 -3 -24 -9 -32 -8 -11 -8 -15 2 -19 10 -3 10
-7 0 -20 -10 -12 -10 -14 -1 -8 9 5 13 -2 14 -23 2 -52 4 -56 22 -53 9 2 17
-2 17 -9 0 -8 4 -8 15 1 8 6 20 8 26 4 8 -4 9 -3 5 4 -4 7 -2 12 3 12 6 0 11
-5 11 -10 0 -12 37 -9 57 3 7 5 17 5 23 2 6 -4 7 1 4 12 -5 16 -4 16 10 -1 16
-20 16 -20 16 1 0 11 7 24 16 27 21 8 69 8 61 0 -3 -4 -2 -14 3 -24 8 -14 5
-17 -20 -16 -30 1 -35 16 -10 28 13 6 13 7 0 7 -8 0 -22 -4 -30 -9 -8 -5 -10
-10 -4 -10 6 0 10 -11 9 -25 -2 -14 1 -25 6 -25 5 0 8 -11 6 -25 -3 -25 -9
-28 -35 -18 -9 4 -10 9 -1 19 9 11 8 14 -4 14 -8 0 -18 6 -20 13 -4 9 -6 9 -6
0 -1 -6 3 -15 9 -18 11 -7 -16 -68 -28 -62 -4 3 -17 -6 -30 -19 l-23 -24 22 0
c14 0 19 -5 16 -14 -3 -7 0 -19 6 -26 9 -10 9 -11 -3 -5 -8 4 -6 -1 5 -12 11
-11 26 -18 34 -15 9 3 12 1 7 -6 -3 -6 -2 -13 4 -17 5 -3 10 -1 10 6 0 6 8 9
20 6 11 -3 18 -2 15 3 -3 4 9 13 25 20 17 7 30 17 30 22 0 6 10 4 22 -4 13 -8
32 -14 42 -12 45 7 66 15 61 24 -3 6 1 10 10 10 9 0 13 -4 10 -10 -3 -5 -1
-10 5 -10 6 0 10 8 8 18 -4 23 40 19 58 -6 13 -16 13 -16 14 2 0 11 3 17 6 13
7 -7 44 29 44 44 0 5 4 8 9 4 6 -3 14 3 20 12 9 16 13 16 31 5 19 -11 24 -11
39 7 14 15 21 17 29 9 9 -9 12 -8 12 5 0 9 -5 17 -11 17 -5 0 -7 5 -3 12 5 8
11 6 19 -5 17 -23 28 -21 22 3 -5 19 10 27 38 20 6 -2 18 -4 27 -4 26 -3 35
-16 12 -17 -10 -1 -22 -1 -26 0 -5 0 -8 -3 -8 -9 0 -5 4 -10 9 -10 4 0 6 -11
3 -25 -2 -14 -8 -25 -13 -25 -11 0 -7 -23 6 -32 6 -4 5 -20 -4 -44 -7 -20 -9
-39 -4 -43 10 -7 11 -111 2 -126 -13 -20 -20 -105 -10 -105 6 0 11 6 11 13 0
7 6 19 12 25 7 7 13 29 14 50 3 93 25 174 43 157 3 -4 7 -55 8 -113 1 -59 -1
-101 -6 -94 -5 9 -8 4 -7 -15 0 -15 -3 -40 -7 -54 -5 -21 -3 -28 11 -31 20 -6
40 12 35 29 -2 6 2 17 10 25 15 15 25 40 33 85 3 15 8 30 12 33 4 3 8 13 8 22
1 10 4 40 7 67 4 37 2 51 -9 55 -18 7 -18 46 0 46 28 0 40 28 49 115 1 11 6
26 10 32 5 7 6 13 2 13 -3 0 -1 9 5 20 17 32 38 24 67 -27 8 -15 9 -23 1 -31
-8 -8 -8 -15 2 -27 10 -12 10 -15 0 -15 -10 0 -9 -5 3 -17 8 -10 18 -42 22
-72 4 -36 12 -59 24 -67 14 -10 18 -24 15 -64 -1 -30 2 -48 7 -44 6 3 8 11 6
17 -2 7 2 26 10 44 7 18 9 34 4 37 -10 7 -2 56 9 56 7 0 22 39 24 63 1 10 28
27 44 27 7 0 10 -5 7 -11 -9 -14 13 -66 32 -73 8 -3 11 -11 8 -16 -8 -14 14
-42 26 -34 6 3 8 -6 5 -20 -3 -14 -1 -28 3 -31 5 -2 9 -29 9 -58 0 -79 17
-119 37 -87 18 29 27 141 13 158 -8 9 -8 16 0 24 13 13 35 1 29 -16 -3 -7 -1
-19 4 -27 7 -11 9 -11 9 -1 0 7 4 11 10 7 5 -3 9 10 8 32 -1 56 1 65 12 58 6
-3 10 -30 10 -60 0 -57 8 -70 39 -60 25 8 37 37 14 33 -14 -3 -17 4 -14 42 4
56 22 70 39 30 15 -37 21 -39 14 -5 -2 14 0 25 5 25 5 0 9 -8 10 -17 4 -41 21
-105 32 -116 8 -8 11 -8 11 2 0 11 3 11 15 1 17 -14 17 -15 33 22 6 15 9 37 6
50 -4 13 -6 53 -7 91 0 49 -4 67 -14 67 -7 0 -12 3 -12 8 1 4 1 9 -1 12 -8 21
-8 50 0 55 6 3 10 2 10 -4 0 -10 31 -7 50 4 6 3 10 1 10 -6 0 -8 13 -10 45 -6
25 4 47 2 50 -3 4 -6 16 -8 29 -4 12 3 41 -1 64 -9 23 -8 45 -11 48 -6 3 5 14
4 26 -2 19 -10 20 -9 13 7 -4 11 -8 33 -9 49 -3 49 -17 84 -36 90 -21 7 -46
42 -55 78 -4 14 -12 24 -19 21 -6 -2 -25 8 -42 23 -24 23 -28 33 -23 53 11 38
10 60 -1 60 -6 0 -24 10 -40 22 -22 16 -27 24 -18 30 21 13 48 9 48 -7 0 -11
5 -12 26 -5 35 14 57 13 48 -2 -5 -8 -2 -9 9 -5 9 3 19 2 23 -4 4 -6 14 -5 27
4 32 20 62 26 81 15 10 -6 16 -5 16 2 0 6 11 8 25 6 13 -3 27 0 30 5 4 5 1 9
-4 9 -6 0 -19 8 -29 17 -9 10 -31 24 -47 32 l-30 14 30 8 c22 5 24 7 10 9 -11
1 -23 2 -27 1 -5 0 -8 6 -8 14 0 15 -16 19 -54 15 -18 -2 -19 0 -4 22 14 20
23 23 84 23 37 0 82 -5 99 -10 16 -6 45 -8 63 -4 18 4 34 3 37 -1 2 -4 16 -5
31 -2 22 4 24 6 10 14 -9 5 -22 8 -28 7 -7 -1 -22 0 -33 1 -17 2 -16 3 5 10
14 4 36 6 50 3 21 -4 23 -3 8 7 -10 6 -24 10 -30 9 -7 -2 -33 3 -57 10 -24 7
-63 14 -85 16 -60 4 -94 15 -100 31 -4 11 1 14 22 12 17 -2 26 1 24 10 -1 6 6
13 15 14 51 5 166 9 220 9 34 0 65 4 68 9 3 5 0 8 -7 5 -7 -3 -20 -1 -28 5
-12 7 -12 12 -2 22 6 6 12 8 12 4 0 -5 7 -3 16 5 8 7 33 12 55 12 22 0 37 2
34 6 -4 3 -40 7 -82 8 -58 2 -81 6 -97 21 -26 24 -62 33 -146 38 -103 6 -111
8 -126 28 -12 17 -11 21 9 35 12 8 28 23 35 33 7 10 20 18 28 18 8 0 17 13 21
30 6 33 10 34 46 21 14 -6 28 -7 31 -3 4 3 16 7 29 9 69 9 95 9 119 -3 33 -17
39 -17 36 -3 -2 6 7 12 19 14 24 2 45 15 25 15 -22 0 -12 20 12 26 54 13 33
47 -24 40 -31 -3 -57 18 -37 31 6 4 18 8 26 10 7 1 19 7 25 14 8 9 8 10 -1 5
-7 -4 -13 -2 -13 3 0 6 5 11 10 11 6 0 10 4 10 9 0 4 -11 7 -25 6 -15 -2 -25
2 -25 10 0 20 -37 6 -43 -16 -3 -10 -10 -19 -15 -19 -6 0 -8 9 -5 20 4 16 -2
13 -30 -13 -38 -34 -83 -48 -73 -22 3 8 1 17 -5 20 -5 4 -12 0 -15 -9 -3 -8
-23 -21 -43 -30 -22 -8 -41 -23 -44 -35 -3 -12 -11 -19 -19 -16 -12 5 -65 -40
-91 -78 -16 -23 -45 -13 -43 16 1 14 13 28 36 39 19 9 29 17 21 18 -22 0 15
36 73 70 28 16 47 30 42 30 -6 0 -1 7 10 15 18 14 17 14 -10 5 -16 -6 -31 -8
-33 -6 -7 7 7 27 15 22 4 -2 18 4 32 14 19 15 22 21 12 32 -6 8 -8 18 -4 23 4
4 -4 4 -18 0 -22 -7 -23 -6 -11 9 7 9 19 16 25 16 7 0 21 7 32 16 18 15 18 15
-8 11 -32 -5 -39 17 -10 28 16 6 16 7 0 16 -22 12 -78 -14 -78 -36 0 -8 -7
-15 -15 -15 -20 0 -19 -36 1 -44 24 -9 6 -28 -19 -20 -12 4 -30 7 -39 6 -10 0
-18 4 -18 10 0 6 -3 8 -7 5 -3 -4 -12 -2 -19 4 -14 12 -54 3 -54 -12 0 -5 -9
-9 -20 -9 -11 0 -20 5 -20 10 0 6 5 10 10 10 6 0 10 5 10 11 0 29 81 83 142
94 40 8 77 39 59 50 -6 3 -11 1 -11 -4 0 -6 -7 -11 -15 -11 -18 0 -19 12 -3
28 12 12 2 17 -29 13 -8 -1 -10 5 -7 16 4 13 0 11 -14 -6 -14 -18 -21 -20 -24
-10 -4 12 -11 11 -37 -4 -17 -10 -31 -15 -31 -10 0 4 -5 1 -10 -7 -5 -8 -10
-10 -10 -5 0 14 -41 17 -56 4 -8 -7 -14 -7 -19 1 -3 5 -12 10 -18 10 -8 0 -8
-3 2 -9 7 -5 9 -11 4 -14 -4 -3 -16 1 -26 8 -12 8 -14 15 -7 20 5 3 7 12 3 18
-14 23 -11 37 8 39 10 0 25 1 32 2 6 1 16 7 20 14 4 6 16 12 25 12 10 0 30 11
45 25 21 20 41 27 93 32 44 4 61 9 52 15 -10 7 -10 11 -1 15 7 2 23 14 35 25
13 11 18 17 11 14 -25 -13 -23 16 3 41 27 24 27 26 9 39 -12 9 -14 14 -5 14 7
0 11 2 9 5 -3 2 -25 -5 -49 -17 -46 -23 -80 -30 -80 -17 0 5 14 24 31 44 28
32 27 41 -3 36 -5 0 -8 5 -8 13 0 10 -7 12 -22 8 -14 -3 -19 -2 -14 6 11 19
-9 14 -27 -6 -10 -10 -17 -28 -17 -40 0 -11 -4 -24 -10 -27 -5 -3 -10 1 -10 9
0 28 -16 17 -30 -20 -20 -49 -70 -84 -70 -49 0 26 -14 16 -45 -30 -27 -40 -65
-61 -65 -35 0 6 4 10 10 10 5 0 7 6 4 13 -3 8 -1 25 5 38 5 15 5 32 0 41 -6
10 -4 31 6 57 7 22 11 42 7 45 -9 5 -32 -20 -25 -28 4 -3 -1 -6 -10 -6 -11 0
-17 8 -17 23 0 13 -3 27 -7 31 -5 4 -8 17 -8 29 0 11 -6 22 -14 25 -8 3 -11 0
-7 -7 4 -6 3 -11 -3 -11 -6 0 -13 -12 -17 -27 -13 -60 -44 -109 -44 -71 0 9
-3 9 -12 0 -7 -7 -17 -8 -30 -1 -10 5 -18 6 -19 2 0 -4 -2 -19 -3 -31 -2 -13
-7 -27 -13 -30 -6 -4 -9 -16 -7 -27 3 -20 3 -20 -12 -1 -15 21 -16 19 -18 -26
-1 -15 -5 -30 -9 -34 -4 -4 -7 -20 -7 -36 0 -25 -2 -27 -14 -16 -8 8 -16 23
-18 34 -2 15 -12 19 -42 19 -25 0 -42 6 -51 18 -10 13 -14 15 -18 5 -3 -9 -7
-8 -12 5 -5 12 -1 25 12 40 26 29 35 55 20 61 -9 3 -9 5 1 5 6 1 12 7 12 14 0
8 9 22 21 33 16 15 18 20 7 29 -16 12 -16 23 0 53 7 12 9 22 5 22 -4 0 0 5 10
11 20 12 23 35 5 41 -9 3 -8 10 5 22 22 22 40 56 30 56 -4 0 -42 -41 -83 -90
-41 -49 -83 -92 -93 -95 -11 -4 -15 -13 -12 -28 3 -16 -6 -35 -34 -67 l-39
-45 -20 23 c-11 12 -24 22 -30 22 -6 0 -9 10 -5 23 2 12 5 31 4 42 0 10 5 25
11 32 8 10 7 12 -4 8 -14 -6 -14 0 -3 49 11 46 11 58 -1 73 -7 10 -13 23 -14
28 0 6 5 3 10 -5 6 -9 10 -10 10 -3 0 6 -5 15 -11 18 -6 4 -7 19 -4 36 8 37 0
37 -19 -1 -8 -16 -10 -30 -5 -30 6 0 5 -7 0 -17 -6 -10 -18 -35 -27 -57 -15
-33 -19 -36 -29 -23 -12 17 1 117 18 145 5 7 6 25 2 39 -6 24 -7 25 -20 7 -14
-18 -14 -18 -15 3 0 12 -5 25 -12 29 -8 5 -9 0 -6 -14z"/>
<path d="M1548 2653 c7 -3 16 -2 19 1 4 3 -2 6 -13 5 -11 0 -14 -3 -6 -6z"/>
<path d="M1755 2580 c3 -5 8 -10 11 -10 2 0 4 5 4 10 0 6 -5 10 -11 10 -5 0
-7 -4 -4 -10z"/>
<path d="M750 2533 c0 -5 5 -15 10 -23 7 -11 10 -11 10 -2 0 7 5 10 10 7 6 -3
10 -2 10 3 0 6 -7 13 -16 16 -20 8 -24 8 -24 -1z"/>
<path d="M1786 2505 c-3 -9 0 -15 9 -15 16 0 20 16 6 24 -5 3 -11 -1 -15 -9z"/>
<path d="M2514 2214 c-16 -13 -16 -15 -1 -10 9 3 17 2 17 -3 0 -5 8 -11 19
-14 20 -5 25 22 6 35 -14 11 -19 10 -41 -8z"/>
<path d="M2380 2129 c0 -5 5 -7 10 -4 6 3 10 8 10 11 0 2 -4 4 -10 4 -5 0 -10
-5 -10 -11z"/>
<path d="M2755 1400 c3 -5 8 -10 11 -10 2 0 4 5 4 10 0 6 -5 10 -11 10 -5 0
-7 -4 -4 -10z"/>
<path d="M576 1085 c-3 -8 -1 -15 4 -15 6 0 10 7 10 15 0 8 -2 15 -4 15 -2 0
-6 -7 -10 -15z"/>
<path d="M2410 1047 c0 -6 3 -7 7 -4 9 9 43 -22 43 -40 0 -7 5 -13 10 -13 6 0
10 5 10 11 0 8 5 8 15 -1 12 -10 15 -10 15 4 0 9 -4 16 -9 16 -5 0 -12 9 -16
20 -5 15 -14 19 -41 18 -19 -1 -34 -6 -34 -11z"/>
<path d="M1093 701 c3 -11 0 -22 -7 -25 -6 -3 -2 -5 8 -3 23 3 30 33 9 41 -11
5 -14 1 -10 -13z"/>
<path d="M585 629 c-4 -6 -5 -12 -2 -15 2 -3 7 2 10 11 7 17 1 20 -8 4z"/>
<path d="M790 590 c0 -5 5 -10 11 -10 5 0 7 5 4 10 -3 6 -8 10 -11 10 -2 0 -4
-4 -4 -10z"/>
<path d="M1216 476 c-9 -14 -12 -27 -7 -30 8 -6 21 14 27 42 4 18 -2 15 -20
-12z"/>
</g>
</svg>
