<svg width="20" height="20" viewBox="0 0 20 20" fill="none" xmlns="http://www.w3.org/2000/svg">
<g clip-path="url(#clip0_138_161)">
<path d="M16.1006 18.9447C15.9443 18.9447 15.7892 18.8984 15.6561 18.8082L10.6273 15.397L7.93012 17.3378C7.71858 17.4899 7.44593 17.5282 7.2003 17.4404C6.95499 17.3523 6.76869 17.1491 6.70219 16.8972L5.3479 11.7648L0.508904 9.91455C0.204269 9.79802 0.00223509 9.50658 1.84203e-05 9.18041C-0.00219825 8.85424 0.195825 8.56006 0.498981 8.43941L18.8986 1.11805C18.9821 1.08258 19.0705 1.0621 19.1596 1.05661C19.1915 1.05471 19.2234 1.05471 19.2552 1.05651C19.4397 1.06749 19.621 1.14264 19.7624 1.28134C19.7771 1.2957 19.791 1.31037 19.8042 1.32568C19.9214 1.45952 19.9858 1.62271 19.9979 1.78896C20.0009 1.83076 20.0007 1.87309 19.997 1.91542C19.9944 1.94561 19.9901 1.97569 19.984 2.00556L16.8782 18.3012C16.8283 18.563 16.6501 18.7821 16.4039 18.8842C16.3063 18.9247 16.2032 18.9447 16.1006 18.9447ZM11.0688 13.7833L15.5483 16.8217L17.9649 4.14191L9.2368 12.5406L11.0477 13.769C11.055 13.7736 11.062 13.7784 11.0688 13.7833ZM7.33985 13.1076L7.93962 15.3802L9.23183 14.4504L7.53977 13.3026C7.46113 13.2494 7.39379 13.1831 7.33985 13.1076ZM2.96994 9.16025L6.29263 10.4306C6.53066 10.5216 6.71031 10.7217 6.77534 10.9681L7.19672 12.5651C7.21603 12.3809 7.29953 12.2075 7.43517 12.077L15.7518 4.07435L2.96994 9.16025Z" fill="#09AFF4"/>
</g>
<defs>
<clipPath id="clip0_138_161">
<rect width="20" height="20" fill="white"/>
</clipPath>
</defs>
</svg>
