<svg width="20" height="20" viewBox="0 0 20 20" fill="none" xmlns="http://www.w3.org/2000/svg">
<g clip-path="url(#clip0_138_173)">
<path d="M0.833323 18.9583C0.729168 19.1667 0.833323 19.375 0.937478 19.4791C1.14583 19.5833 1.35414 19.5833 1.56249 19.5833L4.68747 18.4375C6.24996 19.4791 8.12496 20 9.99996 20C15.5208 20 20 15.5208 20 9.99996C20 4.47912 15.5208 0 10 0C4.47916 0 0 4.47916 0 10C0 12.0833 0.625013 14.1667 1.875 15.8333L0.833323 18.9583ZM1.04167 9.89585C1.04167 4.89582 5.10418 0.93752 10 0.93752C14.8958 0.93752 18.9583 5.00002 18.9583 9.89585C18.9583 14.7917 14.8958 18.8542 10 18.8542C8.22916 18.8542 6.45831 18.3334 4.99998 17.3958C4.89582 17.2917 4.79163 17.2917 4.68747 17.2917C4.58332 17.2917 4.58332 17.2917 4.47912 17.2917L2.08327 18.2292L2.91659 15.8334C3.02074 15.625 2.91659 15.5209 2.81243 15.3126C1.66669 13.75 1.04167 11.875 1.04167 9.89585Z" fill="#09AFF4"/>
<path d="M11.979 16.0415C12.4998 16.1457 12.9165 16.2499 13.4373 16.2499C14.6873 16.2499 15.6248 15.729 16.2498 14.7915C16.5623 14.1665 16.6665 13.6457 16.5623 13.1248C16.354 12.4998 15.8332 12.1873 15.729 12.0832L14.1665 11.2498C13.9582 11.1457 13.7499 11.0415 13.5415 11.0415C12.4998 11.0415 11.8748 12.1873 11.8748 12.1873C11.8748 12.1873 11.7707 12.2915 11.5623 12.2915C11.4582 12.2915 11.4582 12.2915 11.4582 12.2915C9.89567 11.7707 8.74984 10.3123 8.22898 9.58315L8.12483 9.479C7.70817 9.16649 7.60401 9.16649 8.02067 8.74983C8.854 8.02066 8.64569 7.18734 8.43733 6.87483L7.39566 4.37482C7.2915 4.16647 6.87484 3.854 6.45814 3.854C5.93732 3.854 5.31231 4.16651 4.58314 4.89568C2.8123 6.66652 4.16648 9.37484 4.16648 9.37484C6.14563 14.5832 11.7706 15.9373 11.979 16.0415ZM5.31227 5.6248C5.93728 4.89564 6.35394 4.89564 6.4581 4.89564L7.60393 7.39565C7.60393 7.4998 7.70808 7.70815 7.39558 8.02066C6.3539 8.95818 6.66641 9.58315 7.18722 10.2082L7.29138 10.3123C7.8122 11.0415 9.16638 12.8123 11.0414 13.3331C11.0414 13.3331 11.2497 13.3331 11.458 13.3331C11.9789 13.3331 12.3956 13.1248 12.708 12.7081C12.8122 12.3956 13.333 11.8748 13.7497 12.0831L15.3122 12.8123C15.3122 12.8123 15.5205 12.9164 15.6247 13.1248C15.7288 13.4373 15.5205 13.7498 15.4163 13.9581C14.8955 14.8956 13.8538 15.1039 12.3955 14.7914C12.1872 14.7914 7.08303 13.4373 5.20799 8.85394C5.10396 9.06233 4.06228 6.97899 5.31227 5.6248Z" fill="#09AFF4"/>
</g>
<defs>
<clipPath id="clip0_138_173">
<rect width="20" height="20" fill="white"/>
</clipPath>
</defs>
</svg>
