<svg width="19" height="19" viewBox="0 0 19 19" fill="none" xmlns="http://www.w3.org/2000/svg">
<path d="M18.2132 5.15566C17.6892 3.97717 16.9895 3.00744 16.1141 2.24643C15.2383 1.48529 14.2359 0.920625 13.1067 0.552363C11.9773 0.184102 10.8149 0 9.62037 0C8.3599 0 7.15691 0.192598 6.01147 0.576914C4.86566 0.961699 3.85486 1.53861 2.97947 2.30777C2.10367 3.07729 1.404 4.03061 0.880351 5.16791C0.356348 6.30568 0.0947266 7.62721 0.0947266 9.13289C0.0947266 10.5568 0.32793 11.8378 0.794395 12.9751C1.26086 14.1129 1.89918 15.0823 2.70936 15.8844C3.51953 16.686 4.46471 17.304 5.54494 17.7379C6.62518 18.1714 7.77906 18.3885 9.00666 18.3885C9.74318 18.3885 10.492 18.3064 11.253 18.143C12.0141 17.9791 12.7464 17.7336 13.4503 17.4064L12.9593 15.7369C12.6483 15.8512 12.3536 15.966 12.0755 16.0806C11.797 16.195 11.5066 16.2932 11.204 16.3753C10.9009 16.457 10.5779 16.5264 10.2341 16.584C9.89049 16.6411 9.5057 16.6699 9.08025 16.6699C7.93445 16.6699 6.91979 16.4735 6.03596 16.0806C5.15219 15.6879 4.40336 15.1517 3.78965 14.4727C3.17588 13.7937 2.70941 12.9996 2.39025 12.0912C2.07109 11.1829 1.91154 10.2131 1.91154 9.18199C1.91154 8.10176 2.0834 7.10742 2.42711 6.19904C2.77082 5.29066 3.26565 4.50504 3.91246 3.84217C4.55881 3.1793 5.35252 2.65992 6.29389 2.28322C7.2349 1.90693 8.29481 1.71855 9.47324 1.71855C10.6678 1.71855 11.7399 1.90693 12.6894 2.28322C13.6384 2.65992 14.4486 3.18357 15.1199 3.85447C15.7907 4.52578 16.3063 5.32365 16.6665 6.24814C17.0263 7.17305 17.2067 8.18385 17.2067 9.2802C17.2067 9.54217 17.1901 9.89396 17.1576 10.3359C17.1245 10.7778 17.0471 11.2158 16.9244 11.6493C16.8016 12.0832 16.6297 12.4557 16.4088 12.7663C16.1879 13.0774 15.8809 13.2328 15.4882 13.2328C15.1935 13.2328 14.9683 13.143 14.813 12.9628C14.6572 12.7828 14.5387 12.5454 14.457 12.2508C14.3748 11.9561 14.3257 11.6289 14.3097 11.2688C14.2932 10.9089 14.2851 10.5487 14.2851 10.1885V8.54355C14.2851 8.0035 14.2563 7.43074 14.1992 6.825C14.1416 6.21967 13.9575 5.655 13.6468 5.131C13.3357 4.6074 12.8528 4.17352 12.1983 3.8298C11.5436 3.48604 10.6271 3.31424 9.44863 3.31424C8.63002 3.31424 7.85283 3.40863 7.11631 3.5966C6.37979 3.78492 5.70039 4.09184 5.07854 4.51723L5.86416 6.89865C6.19135 6.58793 6.62102 6.34242 7.15311 6.16213C7.68479 5.98219 8.29469 5.89201 8.98211 5.89201C9.4893 5.89201 9.91088 5.94533 10.2465 6.05156C10.5817 6.15826 10.848 6.30932 11.0444 6.50578C11.2408 6.70213 11.3796 6.93967 11.4618 7.21775C11.5435 7.49625 11.5845 7.79895 11.5845 8.12613C11.3552 8.01182 11.036 7.88906 10.6271 7.75787C10.2177 7.62709 9.67768 7.56152 9.00672 7.56152C8.4335 7.56152 7.86502 7.62709 7.30041 7.75787C6.73574 7.88906 6.22398 8.11002 5.76602 8.4208C5.30758 8.73187 4.9351 9.13272 4.64893 9.62379C4.3624 10.1148 4.21932 10.7286 4.21932 11.4651C4.21932 11.9726 4.29684 12.4471 4.45258 12.889C4.60797 13.331 4.8492 13.7199 5.17686 14.0552C5.50404 14.3909 5.91725 14.6528 6.4167 14.8408C6.91574 15.0288 7.50074 15.1232 8.17211 15.1232C9.05594 15.1232 9.85375 14.9674 10.5657 14.6567C11.2778 14.346 11.9119 13.9286 12.4684 13.4046C12.501 13.5849 12.5666 13.7813 12.6648 13.9938C12.763 14.2067 12.9104 14.4032 13.1068 14.583C13.3032 14.7633 13.5567 14.9102 13.8678 15.025C14.1786 15.1393 14.5634 15.1968 15.0218 15.1968C15.6437 15.1968 16.1757 15.0863 16.6175 14.8653C17.0595 14.6443 17.4278 14.354 17.7224 13.9938C18.0169 13.6339 18.2501 13.2326 18.4221 12.7907C18.5939 12.3488 18.7205 11.9154 18.8027 11.4895C18.8843 11.0641 18.9377 10.6632 18.9622 10.2865C18.9868 9.9102 18.9989 9.60756 18.9989 9.37816C18.9988 7.74193 18.7368 6.3341 18.2132 5.15566ZM11.56 10.7287C11.56 11.0563 11.4741 11.3344 11.3021 11.5634C11.1303 11.7928 10.856 11.9973 10.4797 12.1772C10.1686 12.3244 9.83289 12.4472 9.47318 12.5455C9.11295 12.6437 8.76924 12.6928 8.44205 12.6928C8.1144 12.6928 7.85664 12.6398 7.66867 12.5331C7.48035 12.4269 7.33727 12.2999 7.23906 12.1526C7.14086 12.0053 7.07523 11.8499 7.04266 11.6862C7.00967 11.5228 6.99356 11.3835 6.99356 11.2688C6.99356 10.7287 7.18152 10.332 7.55822 10.0781C7.93451 9.82447 8.45816 9.6975 9.12947 9.6975C9.60396 9.6975 10.0662 9.75082 10.5166 9.85705C10.9666 9.96369 11.3145 10.0657 11.56 10.164V10.7287Z" fill="#09AFF4"/>
</svg>
