<svg width="21" height="20" viewBox="0 0 21 20" fill="none" xmlns="http://www.w3.org/2000/svg">
<g clip-path="url(#clip0_138_143)">
<path d="M6.50198 20.0509C5.39554 20.0509 4.31657 19.8344 3.30688 19.3579C2.98705 19.2068 2.85002 18.8248 3.00063 18.504C3.15154 18.1837 3.53271 18.0461 3.85285 18.1972C8.07595 20.1902 13.8211 16.7915 16.9357 12.3531C18.0124 10.8187 21.2268 5.51265 17.3786 1.65685C16.909 1.18596 16.1442 1.18596 15.675 1.65685L14.301 3.03344C14.0729 3.2614 13.9473 3.56442 13.9473 3.88731C13.9473 4.21006 14.0729 4.51415 14.301 4.74287C14.5276 4.96975 14.719 5.17584 14.8862 5.37245C15.1151 5.6426 15.0826 6.04745 14.8134 6.27708C14.544 6.5058 14.1398 6.47308 13.9106 6.20415C13.7662 6.03415 13.5978 5.85282 13.3956 5.65025C12.9259 5.1789 12.6668 4.55313 12.6668 3.88762C12.6668 3.2218 12.9259 2.59588 13.3962 2.12606L14.7693 0.749929C15.239 0.279345 15.863 0.0205078 16.5267 0.0205078C17.1907 0.0205078 17.8146 0.279345 18.2843 0.749929C21.3118 3.78366 21.1963 8.51305 17.9832 13.0918C15.2785 16.9447 10.6926 20.0509 6.50198 20.0509Z" fill="#09AFF4"/>
<path d="M2.25926 18.5909C2.11887 18.5909 1.97727 18.545 1.85947 18.45C1.63226 18.268 1.41192 18.0703 1.20455 17.8628C0.235904 16.8921 0.235904 15.3113 1.20425 14.3386L2.57939 12.962C3.04907 12.4916 3.67301 12.2326 4.33724 12.2326C5.00147 12.2326 5.62572 12.4916 6.09478 12.9625C7.16887 14.0397 8.15247 14.6692 9.4646 14.2365C11.1857 13.6717 14.1026 10.7492 14.6673 9.02474C14.8594 8.43812 14.848 7.88803 14.6325 7.34284C14.5025 7.01337 14.6638 6.64048 14.9927 6.51007C15.3221 6.38057 15.6937 6.54171 15.8237 6.87088C16.149 7.69478 16.1691 8.55385 15.8841 9.42469C15.1893 11.5474 11.982 14.7604 9.86393 15.4555C7.80014 16.1353 6.28125 14.9648 5.1887 13.8694C4.73443 13.4132 3.93944 13.4135 3.48472 13.8699L2.10987 15.2457C1.6402 15.7172 1.6402 16.4845 2.11018 16.9554C2.28428 17.1299 2.46922 17.2959 2.65996 17.4492C2.936 17.6706 2.9804 18.0744 2.75915 18.351C2.6328 18.5088 2.44694 18.5909 2.25926 18.5909Z" fill="#09AFF4"/>
<path d="M11.1669 11.3729C11.1025 11.3729 11.038 11.3634 10.9745 11.3432L8.85532 10.6743C8.02142 11.1319 7.08954 11.3729 6.14195 11.3729C3.01781 11.3729 0.476562 8.82656 0.476562 5.69651C0.476562 2.56616 3.01781 0.0195312 6.14195 0.0195312C9.26595 0.0195312 11.8072 2.56616 11.8072 5.69651C11.8072 6.64594 11.5672 7.57977 11.1102 8.41514L11.7777 10.5384C11.8496 10.7664 11.7886 11.0156 11.62 11.1848C11.4979 11.3071 11.3345 11.3729 11.1669 11.3729ZM6.14195 1.3021C3.724 1.3021 1.7568 3.27357 1.7568 5.69651C1.7568 8.119 3.724 10.0902 6.14195 10.0902C6.95114 10.0902 7.74599 9.86252 8.44119 9.43153C8.60004 9.33353 8.79322 9.30922 8.97007 9.36564L10.1871 9.74953L9.80383 8.53011C9.74798 8.35215 9.77194 8.1586 9.86975 8.00021C10.2994 7.30381 10.5271 6.50727 10.5271 5.69651C10.5271 3.27357 8.55976 1.3021 6.14195 1.3021Z" fill="#09AFF4"/>
<path d="M5.98542 7.0487C5.63157 7.0487 5.34515 6.76174 5.34515 6.40719L5.34469 6.36102C5.34363 6.05204 5.34134 5.53574 5.8896 5.06623C6.09559 4.88964 6.34432 4.77039 6.58511 4.65511C6.75112 4.57546 7.09628 4.41004 7.12955 4.31999C7.13031 4.31769 7.13169 4.30653 7.12894 4.28498C7.10361 4.0743 6.6614 3.88671 6.16365 3.87555C5.58503 3.86209 5.16784 4.07292 5.14389 4.21725C5.0856 4.56675 4.75722 4.8028 4.40687 4.7447C4.0579 4.6863 3.82214 4.35546 3.88043 4.00626C4.04859 2.99782 5.15945 2.58213 6.19249 2.59298C7.40528 2.62035 8.2926 3.23831 8.40048 4.13071C8.52362 5.14817 7.62211 5.58008 7.13718 5.81262C6.97909 5.88845 6.79934 5.97452 6.72137 6.04134C6.62417 6.12435 6.62417 6.12435 6.62524 6.35552V6.40658C6.62569 6.76143 6.33882 7.0487 5.98542 7.0487Z" fill="#09AFF4"/>
<path d="M5.96776 9.02789C5.73872 9.02789 5.51685 8.93387 5.35373 8.77425C5.19428 8.61097 5.10059 8.38852 5.10059 8.15919C5.10059 7.92986 5.19458 7.70711 5.35373 7.54367C5.67631 7.22047 6.25875 7.22047 6.58163 7.54367C6.74109 7.70359 6.83448 7.9294 6.83448 8.15919C6.83448 8.38822 6.74078 8.61097 6.58163 8.77425C6.41897 8.93387 6.19314 9.02789 5.96776 9.02789Z" fill="#09AFF4"/>
</g>
<defs>
<clipPath id="clip0_138_143">
<rect width="20" height="20" fill="white" transform="translate(0.476562)"/>
</clipPath>
</defs>
</svg>
