<svg width="20" height="20" viewBox="0 0 20 20" fill="none" xmlns="http://www.w3.org/2000/svg">
<g clip-path="url(#clip0_138_171)">
<path d="M16.0116 10.6993L19.988 4.6875H13.8897L13.7759 5.12863C13.4837 6.26114 12.9353 7.79602 11.9824 8.67706C11.8646 8.78586 11.753 8.87329 11.6503 8.94333V4.6875H6.33893V5.86334H6.83515V8.52829C6.23975 8.00461 5.49162 7.00531 5.29569 5.21164L5.23847 4.6875H0L0.1799 5.41626C0.826718 8.03711 1.79702 10.1842 3.06411 11.7978C4.09849 13.1152 5.33048 14.0825 6.72574 14.6725C7.97177 15.1996 9.11907 15.3288 9.94457 15.3288C10.7038 15.3288 11.1908 15.2194 11.2316 15.21L11.6795 15.1056L11.7027 13.4903L13.6972 15.2254H20.0001L16.0116 10.6993ZM10.563 10.9406L10.5175 14.126C9.86095 14.1844 8.56015 14.1867 7.12461 13.5643C5.92573 13.0444 4.86082 12.1931 3.95949 11.0339C2.92723 9.70642 2.10601 7.96951 1.51367 5.86334H4.20027C4.78178 9.23584 7.1214 10.1085 7.22562 10.1456L8.01099 10.4257V5.86334H10.4747V10.4315L11.0932 10.3992C11.1685 10.3952 11.8516 10.3407 12.6583 9.64935C13.5749 8.86368 14.2922 7.5914 14.7936 5.86334H17.8005L14.5342 10.8012L17.3966 14.0494H14.1369L10.563 10.9406Z" fill="#09AFF4"/>
</g>
<defs>
<clipPath id="clip0_138_171">
<rect width="20" height="20" fill="white"/>
</clipPath>
</defs>
</svg>
